<?xml version="1.0" encoding="UTF-8"?>
<svg width="48px" height="48px" viewBox="0 0 48 48" version="1.1" xmlns="http://www.w3.org/2000/svg" xmlns:xlink="http://www.w3.org/1999/xlink">
    <title>Group</title>
    <defs>
        <linearGradient x1="49.9999996%" y1="0%" x2="49.9999996%" y2="100%" id="linearGradient-1">
            <stop stop-color="#EF8080" offset="0%"></stop>
            <stop stop-color="#F0145A" offset="100%"></stop>
        </linearGradient>
        <linearGradient x1="49.9999751%" y1="0%" x2="49.9999751%" y2="100%" id="linearGradient-2">
            <stop stop-color="#EF8080" offset="0%"></stop>
            <stop stop-color="#F0145A" offset="100%"></stop>
        </linearGradient>
    </defs>
    <g id="Page-1" stroke="none" stroke-width="1" fill="none" fill-rule="evenodd">
        <g id="Ecommerce" fill-rule="nonzero">
            <g id="Group">
                <path d="M15.5239396,20.125 C16.6279396,20.125 17.5239396,19.229 17.5239396,18.125 L17.5239396,10.325 C17.5239396,6.838 20.3609396,4 23.8479396,4 C27.3349396,4 30.1729396,6.838 30.1729396,10.325 L30.1729396,18.125 C30.1729396,19.229 31.0679396,20.125 32.1729396,20.125 C33.2769396,20.125 34.1729397,19.229 34.1729397,18.125 L34.1729397,10.325 C34.1739396,4.632 29.5419396,0 23.8479396,0 C18.1559396,0 13.5239396,4.632 13.5239396,10.325 L13.5239396,18.125 C13.5239396,19.229 14.4199396,20.125 15.5239396,20.125 Z" id="Path" fill="url(#linearGradient-1)"></path>
                <path d="M46.7900396,15.6309 L36.1740396,15.6309 L36.1740396,18.1249 C36.1740396,20.3309 34.3800396,22.1249 32.1740396,22.1249 C29.9680396,22.1249 28.1740396,20.3309 28.1740396,18.1249 L28.1740396,15.6309 L19.5250396,15.6309 L19.5250396,18.1249 C19.5250396,20.3309 17.7310396,22.1249 15.5250396,22.1249 C13.3190396,22.1249 11.5250396,20.3309 11.5250396,18.1249 L11.5250396,15.6309 L0.790009557,15.6309 C0.238009557,15.6309 -0.102990443,16.0659 0.0280095572,16.6019 L7.02603956,45.0989 C7.44803956,46.7009 9.13403956,47.9999 10.7900396,47.9999 L36.7900396,47.9999 C38.4480396,47.9999 40.1320396,46.7009 40.5560396,45.0989 L47.5520396,16.6019 C47.6830396,16.0649 47.3430396,15.6309 46.7900396,15.6309 Z" id="Path" fill="url(#linearGradient-2)"></path>
                <path d="M20.3901396,26.4 C20.3901396,25.6265 21.0166396,25 21.7901396,25 C22.5636396,25 23.1901396,25.6265 23.1901396,26.4 L23.1901396,33.35 L23.1901396,32 C23.1901396,31.2265 23.8166396,30.6 24.5901396,30.6 C25.3636396,30.6 25.9901396,31.2265 25.9901396,32 L25.9901396,33.6764 C26.0027396,32.9141 26.6246396,31.3 27.3900396,31.3 C28.1631396,31.3 28.7899396,31.9268 28.7900396,32.7 C28.7900396,32.7 28.8311396,33.7411 28.9232396,33.8033 C29.1472396,33.3285 29.6302396,32 30.1900396,32 C30.9632396,32 31.5900396,32.6268 31.5900396,33.4 L31.5900396,40.4 C31.5900396,41.9463 30.3363396,43.2 28.7900396,43.2 L24.1098396,43.2 C22.6244396,43.2 21.1999396,42.6099 20.1499396,41.5599 L17.9400396,39.35 L14.7900396,37.9402 C14.7951396,36.6033 15.8426396,36.2 16.8900396,36.2 C17.7923396,36.2 18.6036396,36.3407 20.3900396,37.25 L20.3901396,26.4 Z" id="Path" fill="#FFFFFF"></path>
            </g>
        </g>
    </g>
</svg>