<?xml version="1.0" encoding="UTF-8"?>
<svg width="62px" height="60px" viewBox="0 0 62 60" version="1.1" xmlns="http://www.w3.org/2000/svg" xmlns:xlink="http://www.w3.org/1999/xlink">
    <title>Trust</title>
    <defs>
        <linearGradient x1="50%" y1="0%" x2="50%" y2="100%" id="linearGradient-1">
            <stop stop-color="#EF8080" offset="0%"></stop>
            <stop stop-color="#F0145A" offset="100%"></stop>
        </linearGradient>
        <linearGradient x1="39.583256%" y1="39.5832327%" x2="60.4168619%" y2="60.4162959%" id="linearGradient-2">
            <stop stop-color="#EF8080" offset="0%"></stop>
            <stop stop-color="#F0145A" offset="100%"></stop>
        </linearGradient>
        <linearGradient x1="10.4168385%" y1="10.4166335%" x2="89.5837507%" y2="89.58372%" id="linearGradient-3">
            <stop stop-color="#EF8080" offset="0%"></stop>
            <stop stop-color="#F0145A" offset="100%"></stop>
        </linearGradient>
        <linearGradient x1="49.9999697%" y1="0%" x2="49.9999697%" y2="100%" id="linearGradient-4">
            <stop stop-color="#EF8080" offset="0%"></stop>
            <stop stop-color="#F0145A" offset="100%"></stop>
        </linearGradient>
        <linearGradient x1="50%" y1="-1.42949138e-05%" x2="50%" y2="100%" id="linearGradient-5">
            <stop stop-color="#EF8080" offset="0%"></stop>
            <stop stop-color="#F0145A" offset="100%"></stop>
        </linearGradient>
    </defs>
    <g id="Page-1" stroke="none" stroke-width="1" fill="none" fill-rule="evenodd">
        <g id="Trust" transform="translate(0.7378, 0.32)" fill-rule="nonzero">
            <polygon id="Path" fill="#000000" points="40.26811 53.68005 21.26811 53.68005 21.26811 59.68005 40.26811 59.68005"></polygon>
            <polygon id="Path" fill="url(#linearGradient-1)" points="40.26811 53.68005 21.26811 53.68005 21.26811 59.68005 40.26811 59.68005"></polygon>
            <polygon id="Path" fill="#000000" points="13.43501 0.13173 -3.55271368e-15 13.56675 3.53554 17.10235 16.97061 3.66727"></polygon>
            <polygon id="Path" fill="url(#linearGradient-2)" points="13.43501 0.13173 -3.55271368e-15 13.56675 3.53554 17.10235 16.97061 3.66727"></polygon>
            <polygon id="Path" fill="#000000" points="47.37491 -1.77635684e-15 43.83931 3.53552 57.27441 16.97055 60.80991 13.43505"></polygon>
            <polygon id="Path" fill="url(#linearGradient-3)" points="47.37491 -1.77635684e-15 43.83931 3.53552 57.27441 16.97055 60.80991 13.43505"></polygon>
            <path d="M42.81861,7.38848 L40.12731,7.27441 C39.35121,7.16487 38.56031,7.23718 37.81701,7.48563 C37.07371,7.73405 36.39831,8.15185 35.84411,8.70605 L30.33971,14.21055 L24.58611,8.45695 C24.08661,7.96885 23.46331,7.62633 22.78361,7.46617 C22.10381,7.30601 21.39321,7.33431 20.72831,7.54803 C20.10101,7.73875 19.43371,7.75555 18.79771,7.59645 C18.16171,7.43737 17.58081,7.10847 17.11731,6.64488 L16.26341,5.791 L5.65674,16.39755 L7.38474,18.12555 L7.27066,20.81685 C7.16112,21.59285 7.23343,22.38375 7.48187,23.12705 C7.73032,23.87035 8.14811,24.54575 8.70231,25.09995 L18.31471,34.71245 C18.44321,33.45055 19.04781,32.28515 20.00541,31.45345 L17.01041,28.45855 L17.71751,27.75145 L20.84581,30.87965 C21.28921,30.62725 21.76901,30.44495 22.26811,30.33915 L22.26811,26.64515 L20.54601,24.92305 L21.25301,24.21585 L22.26811,25.23095 L22.26811,19.88105 C22.25701,18.99685 22.57081,18.13925 23.15011,17.47105 C23.72941,16.80285 24.53381,16.37045 25.41071,16.25605 C25.74141,16.22405 26.07501,16.23905 26.40151,16.30085 L25.17201,15.07145 L25.87911,14.36435 L27.67531,16.16045 C27.99341,15.54405 28.48551,15.03475 29.09051,14.69545 C29.69551,14.35625 30.38681,14.20215 31.07871,14.25215 C31.91351,14.34975 32.68801,14.73625 33.26791,15.34475 C33.84771,15.95335 34.19641,16.74555 34.25351,17.58415 C34.82181,17.31405 35.45161,17.19945 36.07871,17.25215 C36.96971,17.35885 37.78951,17.79265 38.37881,18.46955 C38.96811,19.14635 39.28511,20.01795 39.26811,20.91525 L39.26811,24.33915 C40.17821,24.52915 41.01731,24.96905 41.69141,25.60935 C42.36541,26.24965 42.84771,27.06515 43.08421,27.96425 L45.87271,25.17575 L46.57981,25.88295 L43.26451,29.19815 C43.26461,29.21195 43.26811,29.22475 43.26811,29.23855 L43.26811,32.55855 C44.16651,32.46455 45.00591,32.06645 45.64701,31.43015 L52.48721,24.58995 C52.97531,24.09045 53.31781,23.46715 53.47801,22.78735 C53.63811,22.10765 53.60981,21.39695 53.39611,20.73215 C53.20531,20.10485 53.18861,19.43755 53.34771,18.80155 C53.50671,18.16545 53.83571,17.58465 54.29931,17.12105 L55.15311,16.26715 L44.54661,5.66052 L42.81861,7.38848 Z" id="Path" fill="#000000"></path>
            <path d="M42.81861,7.38848 L40.12731,7.27441 C39.35121,7.16487 38.56031,7.23718 37.81701,7.48563 C37.07371,7.73405 36.39831,8.15185 35.84411,8.70605 L30.33971,14.21055 L24.58611,8.45695 C24.08661,7.96885 23.46331,7.62633 22.78361,7.46617 C22.10381,7.30601 21.39321,7.33431 20.72831,7.54803 C20.10101,7.73875 19.43371,7.75555 18.79771,7.59645 C18.16171,7.43737 17.58081,7.10847 17.11731,6.64488 L16.26341,5.791 L5.65674,16.39755 L7.38474,18.12555 L7.27066,20.81685 C7.16112,21.59285 7.23343,22.38375 7.48187,23.12705 C7.73032,23.87035 8.14811,24.54575 8.70231,25.09995 L18.31471,34.71245 C18.44321,33.45055 19.04781,32.28515 20.00541,31.45345 L17.01041,28.45855 L17.71751,27.75145 L20.84581,30.87965 C21.28921,30.62725 21.76901,30.44495 22.26811,30.33915 L22.26811,26.64515 L20.54601,24.92305 L21.25301,24.21585 L22.26811,25.23095 L22.26811,19.88105 C22.25701,18.99685 22.57081,18.13925 23.15011,17.47105 C23.72941,16.80285 24.53381,16.37045 25.41071,16.25605 C25.74141,16.22405 26.07501,16.23905 26.40151,16.30085 L25.17201,15.07145 L25.87911,14.36435 L27.67531,16.16045 C27.99341,15.54405 28.48551,15.03475 29.09051,14.69545 C29.69551,14.35625 30.38681,14.20215 31.07871,14.25215 C31.91351,14.34975 32.68801,14.73625 33.26791,15.34475 C33.84771,15.95335 34.19641,16.74555 34.25351,17.58415 C34.82181,17.31405 35.45161,17.19945 36.07871,17.25215 C36.96971,17.35885 37.78951,17.79265 38.37881,18.46955 C38.96811,19.14635 39.28511,20.01795 39.26811,20.91525 L39.26811,24.33915 C40.17821,24.52915 41.01731,24.96905 41.69141,25.60935 C42.36541,26.24965 42.84771,27.06515 43.08421,27.96425 L45.87271,25.17575 L46.57981,25.88295 L43.26451,29.19815 C43.26461,29.21195 43.26811,29.22475 43.26811,29.23855 L43.26811,32.55855 C44.16651,32.46455 45.00591,32.06645 45.64701,31.43015 L52.48721,24.58995 C52.97531,24.09045 53.31781,23.46715 53.47801,22.78735 C53.63811,22.10765 53.60981,21.39695 53.39611,20.73215 C53.20531,20.10485 53.18861,19.43755 53.34771,18.80155 C53.50671,18.16545 53.83571,17.58465 54.29931,17.12105 L55.15311,16.26715 L44.54661,5.66052 L42.81861,7.38848 Z" id="Path" fill="url(#linearGradient-4)"></path>
            <path d="M28.14241,19.37015 C28.06641,18.72055 27.73791,18.12685 27.22791,17.71735 C26.71791,17.30785 26.06731,17.11535 25.41661,17.18155 C24.78541,17.26865 24.20821,17.58465 23.79481,18.06945 C23.38141,18.55425 23.16061,19.17415 23.17431,19.81115 L23.17431,31.16855 C22.11341,31.16855 21.09601,31.58995 20.34591,32.34005 C19.59571,33.09025 19.17431,34.10765 19.17431,35.16855 L19.17431,44.84195 C19.18241,45.54035 19.38091,46.22325 19.74831,46.81715 C20.11581,47.41115 20.63821,47.89355 21.25951,48.21255 C21.83791,48.52125 22.32161,48.98125 22.65891,49.54345 C22.99621,50.10565 23.17431,50.74895 23.17431,51.40455 L23.17431,52.61215 L38.17431,52.61215 L38.17431,50.16855 L40.15801,48.34615 C40.78421,47.87485 41.29231,47.26445 41.64221,46.56315 C41.99221,45.86185 42.17431,45.08885 42.17431,44.30515 L42.17431,29.16855 C42.17431,28.10765 41.75291,27.09025 41.00271,26.34005 C40.25261,25.58995 39.23521,25.16855 38.17431,25.16855 L38.17431,20.84595 C38.19131,20.19875 37.96821,19.56805 37.54791,19.07555 C37.12771,18.58305 36.54001,18.26345 35.89821,18.17835 C35.26821,18.12265 34.64071,18.30855 34.14261,18.69835 C33.64461,19.08805 33.31331,19.65255 33.21591,20.27745 L33.67431,20.27745 L33.67431,35.72075 L32.67431,35.72075 L32.67431,20.27745 L33.17431,20.27745 L33.17431,17.84595 C33.19131,17.19875 32.96821,16.56805 32.54791,16.07555 C32.12771,15.58305 31.54001,15.26345 30.89821,15.17835 C30.55241,15.14735 30.20391,15.18865 29.87501,15.29965 C29.54601,15.41065 29.24381,15.58905 28.98761,15.82325 C28.73131,16.05755 28.52671,16.34255 28.38671,16.66025 C28.24671,16.97795 28.17431,17.32135 28.17431,17.66855 L28.17431,19.37015 L28.67431,19.37015 L28.67431,34.81355 L27.67431,34.81355 L27.67431,19.37015 L28.14241,19.37015 Z M23.57351,39.72075 L22.57351,39.72075 L22.57351,31.72075 L23.57351,31.72075 L23.57351,39.72075 Z M37.67431,25.47905 L38.67431,25.47905 L38.67431,35.92235 L37.67431,35.92235 L37.67431,25.47905 Z" id="Shape" fill="#000000"></path>
            <path d="M28.14241,19.37015 C28.06641,18.72055 27.73791,18.12685 27.22791,17.71735 C26.71791,17.30785 26.06731,17.11535 25.41661,17.18155 C24.78541,17.26865 24.20821,17.58465 23.79481,18.06945 C23.38141,18.55425 23.16061,19.17415 23.17431,19.81115 L23.17431,31.16855 C22.11341,31.16855 21.09601,31.58995 20.34591,32.34005 C19.59571,33.09025 19.17431,34.10765 19.17431,35.16855 L19.17431,44.84195 C19.18241,45.54035 19.38091,46.22325 19.74831,46.81715 C20.11581,47.41115 20.63821,47.89355 21.25951,48.21255 C21.83791,48.52125 22.32161,48.98125 22.65891,49.54345 C22.99621,50.10565 23.17431,50.74895 23.17431,51.40455 L23.17431,52.61215 L38.17431,52.61215 L38.17431,50.16855 L40.15801,48.34615 C40.78421,47.87485 41.29231,47.26445 41.64221,46.56315 C41.99221,45.86185 42.17431,45.08885 42.17431,44.30515 L42.17431,29.16855 C42.17431,28.10765 41.75291,27.09025 41.00271,26.34005 C40.25261,25.58995 39.23521,25.16855 38.17431,25.16855 L38.17431,20.84595 C38.19131,20.19875 37.96821,19.56805 37.54791,19.07555 C37.12771,18.58305 36.54001,18.26345 35.89821,18.17835 C35.26821,18.12265 34.64071,18.30855 34.14261,18.69835 C33.64461,19.08805 33.31331,19.65255 33.21591,20.27745 L33.67431,20.27745 L33.67431,35.72075 L32.67431,35.72075 L32.67431,20.27745 L33.17431,20.27745 L33.17431,17.84595 C33.19131,17.19875 32.96821,16.56805 32.54791,16.07555 C32.12771,15.58305 31.54001,15.26345 30.89821,15.17835 C30.55241,15.14735 30.20391,15.18865 29.87501,15.29965 C29.54601,15.41065 29.24381,15.58905 28.98761,15.82325 C28.73131,16.05755 28.52671,16.34255 28.38671,16.66025 C28.24671,16.97795 28.17431,17.32135 28.17431,17.66855 L28.17431,19.37015 L28.67431,19.37015 L28.67431,34.81355 L27.67431,34.81355 L27.67431,19.37015 L28.14241,19.37015 Z M23.57351,39.72075 L22.57351,39.72075 L22.57351,31.72075 L23.57351,31.72075 L23.57351,39.72075 Z M37.67431,25.47905 L38.67431,25.47905 L38.67431,35.92235 L37.67431,35.92235 L37.67431,25.47905 Z" id="Shape" fill="url(#linearGradient-5)"></path>
        </g>
    </g>
</svg>